HIERARCHY
ROOT mixamorig:Hips
{
	OFFSET 0.000000 77.714516 0.000000
	CHANNELS 6 Xposition Yposition Zposition Xrotation Yrotation Zrotation
	JOINT mixamorig:Spine
	{
		OFFSET 0.000000 14.685699 -1.734700
		CHANNELS 3 Xrotation Yrotation Zrotation
		JOINT mixamorig:Spine1
		{
			OFFSET 0.000000 17.133286 -2.023825
			CHANNELS 3 Xrotation Yrotation Zrotation
			JOINT mixamorig:Spine2
			{
				OFFSET 0.000000 19.580956 -2.312950
				CHANNELS 3 Xrotation Yrotation Zrotation
				JOINT mixamorig:Neck
				{
					OFFSET 0.000000 22.028564 -2.602067
					CHANNELS 3 Xrotation Yrotation Zrotation
					JOINT mixamorig:Head
					{
						OFFSET 0.000000 7.772293 1.167700
						CHANNELS 3 Xrotation Yrotation Zrotation
						JOINT mixamorig:HeadTop_End
						{
							OFFSET 0.000000 26.518204 3.983900
							CHANNELS 3 Xrotation Yrotation Zrotation
							End Site
							{
								OFFSET 0.000000 26.815781 0.000000
							}
						}
					}
				}
				JOINT mixamorig:LeftShoulder
				{
					OFFSET 11.646600 18.513336 -2.583780
					CHANNELS 3 Xrotation Yrotation Zrotation
					JOINT mixamorig:LeftArm
					{
						OFFSET 23.544209 -6.614426 0.036475
						CHANNELS 3 Xrotation Yrotation Zrotation
						JOINT mixamorig:LeftForeArm
						{
							OFFSET 22.756695 0.000000 -0.000001
							CHANNELS 3 Xrotation Yrotation Zrotation
							JOINT mixamorig:LeftHand
							{
								OFFSET 32.238304 0.000000 -0.000001
								CHANNELS 3 Xrotation Yrotation Zrotation
								JOINT mixamorig:LeftHandThumb1
								{
									OFFSET 4.391930 -2.771759 4.066533
									CHANNELS 3 Xrotation Yrotation Zrotation
									JOINT mixamorig:LeftHandThumb2
									{
										OFFSET 4.087418 -2.359879 2.359871
										CHANNELS 3 Xrotation Yrotation Zrotation
										JOINT mixamorig:LeftHandThumb3
										{
											OFFSET 4.044945 -2.335342 2.335349
											CHANNELS 3 Xrotation Yrotation Zrotation
											JOINT mixamorig:LeftHandThumb4
											{
												OFFSET 3.242561 -1.872101 1.872095
												CHANNELS 3 Xrotation Yrotation Zrotation
												End Site
												{
													OFFSET 2.876892 -1.863678 2.402885
												}
											}
										}
									}
								}
								JOINT mixamorig:LeftHandIndex1
								{
									OFFSET 13.080666 -0.495590 3.860911
									CHANNELS 3 Xrotation Yrotation Zrotation
									JOINT mixamorig:LeftHandIndex2
									{
										OFFSET 4.467804 0.000000 0.000000
										CHANNELS 3 Xrotation Yrotation Zrotation
										JOINT mixamorig:LeftHandIndex3
										{
											OFFSET 4.434097 0.000000 0.000000
											CHANNELS 3 Xrotation Yrotation Zrotation
											JOINT mixamorig:LeftHandIndex4
											{
												OFFSET 3.589699 0.000000 0.000000
												CHANNELS 3 Xrotation Yrotation Zrotation
												End Site
												{
													OFFSET 3.589706 0.000000 0.000200
												}
											}
										}
									}
								}
								JOINT mixamorig:LeftHandMiddle1
								{
									OFFSET 12.178093 0.000000 0.000000
									CHANNELS 3 Xrotation Yrotation Zrotation
									JOINT mixamorig:LeftHandMiddle2
									{
										OFFSET 5.491508 0.000000 0.000000
										CHANNELS 3 Xrotation Yrotation Zrotation
										JOINT mixamorig:LeftHandMiddle3
										{
											OFFSET 5.202805 0.000000 0.000000
											CHANNELS 3 Xrotation Yrotation Zrotation
											JOINT mixamorig:LeftHandMiddle4
											{
												OFFSET 4.456505 0.000000 0.000000
												CHANNELS 3 Xrotation Yrotation Zrotation
												End Site
												{
													OFFSET 4.456505 -0.000046 0.006499
												}
											}
										}
									}
								}
								JOINT mixamorig:LeftHandRing1
								{
									OFFSET 11.850945 -0.053970 -3.835439
									CHANNELS 3 Xrotation Yrotation Zrotation
									JOINT mixamorig:LeftHandRing2
									{
										OFFSET 4.691414 0.000000 0.000000
										CHANNELS 3 Xrotation Yrotation Zrotation
										JOINT mixamorig:LeftHandRing3
										{
											OFFSET 4.518303 0.000000 0.000000
											CHANNELS 3 Xrotation Yrotation Zrotation
											JOINT mixamorig:LeftHandRing4
											{
												OFFSET 3.568130 0.000000 0.000000
												CHANNELS 3 Xrotation Yrotation Zrotation
												End Site
												{
													OFFSET 3.568100 -0.000168 0.014599
												}
											}
										}
									}
								}
								JOINT mixamorig:LeftHandPinky1
								{
									OFFSET 10.491814 -0.458572 -7.033705
									CHANNELS 3 Xrotation Yrotation Zrotation
									JOINT mixamorig:LeftHandPinky2
									{
										OFFSET 4.452301 0.000000 0.000000
										CHANNELS 3 Xrotation Yrotation Zrotation
										JOINT mixamorig:LeftHandPinky3
										{
											OFFSET 3.536598 0.000000 0.000000
											CHANNELS 3 Xrotation Yrotation Zrotation
											JOINT mixamorig:LeftHandPinky4
											{
												OFFSET 2.823502 0.000000 0.000000
												CHANNELS 3 Xrotation Yrotation Zrotation
												End Site
												{
													OFFSET 2.823502 0.000000 0.000600
												}
											}
										}
									}
								}
							}
						}
					}
				}
				JOINT mixamorig:RightShoulder
				{
					OFFSET -11.646600 18.513351 -2.620334
					CHANNELS 3 Xrotation Yrotation Zrotation
					JOINT mixamorig:RightArm
					{
						OFFSET -23.544205 -6.614441 -0.036501
						CHANNELS 3 Xrotation Yrotation Zrotation
						JOINT mixamorig:RightForeArm
						{
							OFFSET -22.759399 0.000000 0.000001
							CHANNELS 3 Xrotation Yrotation Zrotation
							JOINT mixamorig:RightHand
							{
								OFFSET -32.238106 0.000000 0.000001
								CHANNELS 3 Xrotation Yrotation Zrotation
								JOINT mixamorig:RightHandThumb1
								{
									OFFSET -4.492897 -2.767944 4.026622
									CHANNELS 3 Xrotation Yrotation Zrotation
									JOINT mixamorig:RightHandThumb2
									{
										OFFSET -4.113335 -2.374832 2.374833
										CHANNELS 3 Xrotation Yrotation Zrotation
										JOINT mixamorig:RightHandThumb3
										{
											OFFSET -4.066299 -2.347672 2.347678
											CHANNELS 3 Xrotation Yrotation Zrotation
											JOINT mixamorig:RightHandThumb4
											{
												OFFSET -3.138756 -1.812164 1.812160
												CHANNELS 3 Xrotation Yrotation Zrotation
												End Site
												{
													OFFSET -2.613274 -1.789185 2.527684
												}
											}
										}
									}
								}
								JOINT mixamorig:RightHandIndex1
								{
									OFFSET -12.930191 -0.141510 3.700550
									CHANNELS 3 Xrotation Yrotation Zrotation
									JOINT mixamorig:RightHandIndex2
									{
										OFFSET -4.764015 0.000000 0.000000
										CHANNELS 3 Xrotation Yrotation Zrotation
										JOINT mixamorig:RightHandIndex3
										{
											OFFSET -4.419807 0.000000 0.000000
											CHANNELS 3 Xrotation Yrotation Zrotation
											JOINT mixamorig:RightHandIndex4
											{
												OFFSET -3.701851 0.000000 0.000000
												CHANNELS 3 Xrotation Yrotation Zrotation
												End Site
												{
													OFFSET -3.701797 0.000153 -0.018699
												}
											}
										}
									}
								}
								JOINT mixamorig:RightHandMiddle1
								{
									OFFSET -12.168388 0.000000 0.000001
									CHANNELS 3 Xrotation Yrotation Zrotation
									JOINT mixamorig:RightHandMiddle2
									{
										OFFSET -5.385834 0.000000 0.000000
										CHANNELS 3 Xrotation Yrotation Zrotation
										JOINT mixamorig:RightHandMiddle3
										{
											OFFSET -5.321609 0.000000 0.000000
											CHANNELS 3 Xrotation Yrotation Zrotation
											JOINT mixamorig:RightHandMiddle4
											{
												OFFSET -4.501015 0.000000 0.000000
												CHANNELS 3 Xrotation Yrotation Zrotation
												End Site
												{
													OFFSET -4.500992 -0.000168 0.011299
												}
											}
										}
									}
								}
								JOINT mixamorig:RightHandRing1
								{
									OFFSET -11.815239 0.302551 -3.905540
									CHANNELS 3 Xrotation Yrotation Zrotation
									JOINT mixamorig:RightHandRing2
									{
										OFFSET -4.583313 0.000000 0.000000
										CHANNELS 3 Xrotation Yrotation Zrotation
										JOINT mixamorig:RightHandRing3
										{
											OFFSET -4.612907 0.000000 0.000000
											CHANNELS 3 Xrotation Yrotation Zrotation
											JOINT mixamorig:RightHandRing4
											{
												OFFSET -3.358940 0.000000 0.000000
												CHANNELS 3 Xrotation Yrotation Zrotation
												End Site
												{
													OFFSET -3.358910 -0.000198 0.016799
												}
											}
										}
									}
								}
								JOINT mixamorig:RightHandPinky1
								{
									OFFSET -10.511444 -0.263382 -6.996516
									CHANNELS 3 Xrotation Yrotation Zrotation
									JOINT mixamorig:RightHandPinky2
									{
										OFFSET -4.477509 0.000000 0.000000
										CHANNELS 3 Xrotation Yrotation Zrotation
										JOINT mixamorig:RightHandPinky3
										{
											OFFSET -3.497902 0.000000 0.000000
											CHANNELS 3 Xrotation Yrotation Zrotation
											JOINT mixamorig:RightHandPinky4
											{
												OFFSET -2.797302 0.000000 0.000000
												CHANNELS 3 Xrotation Yrotation Zrotation
												End Site
												{
													OFFSET -2.797302 -0.000031 0.002200
												}
											}
										}
									}
								}
							}
						}
					}
				}
			}
		}
	}
	JOINT mixamorig:LeftUpLeg
	{
		OFFSET 13.580900 -8.149200 -1.796100
		CHANNELS 3 Xrotation Yrotation Zrotation
		JOINT mixamorig:LeftLeg
		{
			OFFSET 1.779603 -35.946629 -2.676069
			CHANNELS 3 Xrotation Yrotation Zrotation
			JOINT mixamorig:LeftFoot
			{
				OFFSET -1.779600 -26.652353 -2.057156
				CHANNELS 3 Xrotation Yrotation Zrotation
				JOINT mixamorig:LeftToeBase
				{
					OFFSET -1.192457 -6.581663 13.403625
					CHANNELS 3 Xrotation Yrotation Zrotation
					JOINT mixamorig:LeftToe_End
					{
						OFFSET -0.351332 -0.163919 5.937958
						CHANNELS 3 Xrotation Yrotation Zrotation
						End Site
						{
							OFFSET -0.351332 -0.163919 5.937958
						}
					}
				}
			}
		}
	}
	JOINT mixamorig:RightUpLeg
	{
		OFFSET -13.580900 -8.149200 -2.255300
		CHANNELS 3 Xrotation Yrotation Zrotation
		JOINT mixamorig:RightLeg
		{
			OFFSET -1.779582 -35.946686 -2.316831
			CHANNELS 3 Xrotation Yrotation Zrotation
			JOINT mixamorig:RightFoot
			{
				OFFSET 1.779588 -26.652205 -2.090130
				CHANNELS 3 Xrotation Yrotation Zrotation
				JOINT mixamorig:RightToeBase
				{
					OFFSET 1.192391 -6.582412 13.372187
					CHANNELS 3 Xrotation Yrotation Zrotation
					JOINT mixamorig:RightToe_End
					{
						OFFSET 0.351304 -0.164246 5.913598
						CHANNELS 3 Xrotation Yrotation Zrotation
						End Site
						{
							OFFSET 0.351304 -0.164246 5.913598
						}
					}
				}
			}
		}
	}
}
MOTION
Frames: 6
Frame Time: 0.016667
2.380598 75.986641 1.692086 -0.908612 1.539173 -4.135347 1.284621 -1.185424 1.792598 0.728744 0.264195 5.944683 0.710790 0.781493 5.852000 1.045308 -0.304693 -2.163987 1.584931 0.544179 -8.140493 -0.000000 0.000000 -0.000000 3.582357 -13.764037 -5.044457 4.032788 3.514250 -83.678362 0.000004 -14.506738 0.000035 -27.592516 3.698837 -9.416227 18.491279 -0.461440 10.916089 1.284088 32.757604 -3.088961 2.117133 9.311165 -0.358615 -0.000002 0.000002 0.000001 0.339574 4.671346 -7.844256 0.387032 2.823582 -20.566241 0.034637 0.816838 -10.169812 -0.000001 -0.000000 -0.000000 0.912595 8.769259 -15.831726 0.919078 3.991131 -33.400400 0.170574 1.488885 -12.264428 -0.000001 -0.000001 -0.000000 2.555816 11.673024 -26.909192 1.710665 3.886784 -40.215461 0.544870 1.835072 -19.344153 0.000000 0.000001 0.000000 5.576090 16.029168 -36.940627 1.378705 4.077639 -45.645604 0.486586 2.853387 -20.524734 -0.000000 0.000000 0.000001 4.508122 3.324394 5.471655 -1.219626 0.655861 67.345419 0.000003 17.736786 -0.000019 -11.193146 -9.123244 10.139294 18.491279 0.461419 -10.916066 1.284082 -32.757608 3.088986 2.008676 -8.430465 1.114732 0.000001 -0.000003 0.000005 0.339548 -4.671354 7.844291 0.387039 -2.823586 20.566248 -0.193127 -0.216340 13.843926 -0.000000 0.000000 0.000000 0.912586 -8.769267 15.831745 0.919070 -3.991136 33.400424 0.216476 -1.688835 15.898063 0.000000 -0.000000 0.000001 2.555825 -11.673037 26.909190 1.710662 -3.886780 40.215461 -0.157951 0.035274 17.815341 0.000000 0.000000 0.000000 5.576108 -16.029170 36.940644 1.378677 -4.077633 45.645611 -0.727748 -0.247552 22.122735 -0.000001 -0.000000 -0.000001 -21.914664 10.408085 15.425716 32.210691 8.792088 1.776346 -8.753447 4.453628 -9.530386 -0.441981 0.000000 0.000003 -0.000000 0.000001 0.000000 1.174240 -4.212799 9.554829 5.892577 -5.368323 3.268410 -6.243465 0.935437 -8.066970 -0.548638 0.000003 -0.000001 0.000000 0.000000 -0.000000 
2.399742 75.987595 1.692840 -0.956327 1.632164 -4.129532 1.317441 -1.151391 1.792777 0.732671 0.275152 5.943447 0.714812 0.792453 5.850687 1.070853 -0.310473 -2.186600 1.758570 0.498288 -8.159295 0.000000 -0.000000 0.000000 3.581505 -13.770653 -5.048114 3.964532 3.431223 -83.637982 0.000008 -14.431976 0.000003 -27.617752 3.585521 -9.504146 18.495227 -0.439888 10.922738 1.292415 32.778935 -3.088981 2.122394 9.332978 -0.354922 -0.000000 -0.000001 0.000001 0.340861 4.680613 -7.936634 0.390452 2.832711 -20.662936 0.035554 0.823198 -10.233143 0.000000 -0.000001 0.000000 0.917932 8.777464 -15.924718 0.924263 3.999303 -33.497488 0.172104 1.495020 -12.327764 0.000001 -0.000000 -0.000001 2.566015 11.678628 -27.003047 1.717646 3.893540 -40.312944 0.547518 1.840778 -19.407552 -0.000001 0.000000 0.000000 5.581906 16.036603 -37.034478 1.385082 4.084994 -45.742651 0.489199 2.859206 -20.588174 -0.000001 0.000001 -0.000001 4.498855 3.400413 5.519395 -1.886588 -0.268771 67.336308 0.000009 17.573054 0.000002 -10.906888 -9.085171 10.106321 18.420387 0.445007 -10.925594 1.277346 -32.756901 3.087292 2.022214 -8.442322 1.114551 -0.000001 0.000002 0.000003 0.337967 -4.659851 7.845300 0.387025 -2.823580 20.566236 -0.193121 -0.216345 13.843931 0.000000 0.000000 -0.000002 0.910504 -8.764529 15.808290 0.919299 -3.991496 33.404710 0.215855 -1.686674 15.875656 -0.000000 -0.000000 0.000002 2.556043 -11.680235 26.871706 1.710375 -3.886515 40.211588 -0.158107 0.036997 17.798532 -0.000001 -0.000000 -0.000000 5.578164 -16.045743 36.888738 1.377504 -4.076270 45.627549 -0.727583 -0.243098 22.083421 -0.000001 0.000001 -0.000002 -21.892667 10.412518 15.390464 32.219584 8.725237 1.802948 -8.758317 4.440371 -9.505398 -0.418664 -0.000016 0.000001 0.000000 0.000002 -0.000000 1.230101 -4.254613 9.542571 5.927869 -5.355282 3.263179 -6.290402 0.877333 -8.049304 -0.549282 -0.000001 -0.000002 -0.000000 0.000000 0.000000 
2.422038 75.988846 1.693765 -1.008700 1.742228 -4.121611 1.350796 -1.106750 1.796801 0.736467 0.289550 5.943240 0.718717 0.806872 5.850359 1.095161 -0.316756 -2.209755 1.937585 0.451522 -8.208074 -0.000000 -0.000000 0.000000 3.580309 -13.784719 -5.038680 3.892643 3.424275 -83.615797 0.000011 -14.359587 0.000017 -27.861264 3.330456 -9.647323 18.504202 -0.390876 10.937846 1.311441 32.827429 -3.089116 2.134382 9.382604 -0.346492 -0.000000 -0.000000 0.000001 0.343835 4.701673 -8.146668 0.398348 2.853461 -20.882979 0.037630 0.837652 -10.377170 -0.000000 0.000000 0.000000 0.930151 8.796013 -16.136214 0.936102 4.017858 -33.718294 0.175595 1.508997 -12.471883 0.000001 -0.000002 0.000003 2.589227 11.691192 -27.216533 1.733577 3.908859 -40.534676 0.553580 1.853727 -19.551775 -0.000001 -0.000000 0.000000 5.595138 16.053385 -37.247955 1.399610 4.101705 -45.963328 0.495195 2.872454 -20.732512 0.000001 -0.000001 -0.000001 4.489132 3.467092 5.538911 -2.818347 -1.269687 67.264926 0.000012 17.079767 0.000010 -9.666652 -9.372080 10.334462 18.271393 0.410798 -10.945721 1.263224 -32.755374 3.083714 2.050640 -8.467261 1.114226 -0.000001 0.000006 0.000001 0.334616 -4.635678 7.847526 0.387029 -2.823582 20.566205 -0.193124 -0.216349 13.843946 0.000000 -0.000000 0.000001 0.906131 -8.754573 15.759041 0.919794 -3.992253 33.413740 0.214561 -1.682155 15.828595 -0.000000 0.000000 -0.000000 2.556430 -11.695362 26.792961 1.709804 -3.885948 40.203463 -0.158428 0.040594 17.763213 -0.000001 0.000000 0.000000 5.582369 -16.080543 36.779630 1.375013 -4.073387 45.589583 -0.727206 -0.233736 22.000777 -0.000001 0.000000 -0.000002 -21.868799 10.414422 15.344151 32.226359 8.646521 1.839596 -8.760663 4.429659 -9.479113 -0.397672 -0.000000 0.000000 -0.000000 0.000001 -0.000000 1.291081 -4.292488 9.531024 5.964708 -5.337271 3.252721 -6.343091 0.793438 -8.028981 -0.547073 -0.000002 0.000002 -0.000000 -0.000000 -0.000000 
2.446285 75.990311 1.694548 -1.063786 1.860934 -4.112787 1.383775 -1.053694 1.803425 0.740306 0.306685 5.943790 0.722678 0.824036 5.850749 1.117553 -0.324207 -2.231670 2.115912 0.403238 -8.279674 -0.000000 0.000000 0.000000 3.579138 -13.803547 -5.014650 3.826015 3.492899 -83.608291 0.000020 -14.291592 -0.000011 -28.314629 2.945686 -9.836890 18.517811 -0.316163 10.960883 1.340475 32.901315 -3.089363 2.152618 9.458244 -0.333593 0.000001 0.000000 -0.000001 0.348532 4.733751 -8.466820 0.410513 2.885037 -21.218394 0.040878 0.859681 -10.596694 -0.000002 -0.000000 -0.000001 0.948865 8.824124 -16.458570 0.954319 4.046056 -34.054845 0.181006 1.530265 -12.691546 0.000000 -0.000001 -0.000000 2.624603 11.709982 -27.541925 1.757963 3.932103 -40.872620 0.562870 1.873434 -19.771559 -0.000001 0.000001 -0.000000 5.615436 16.078870 -37.573414 1.421929 4.127072 -46.299694 0.504370 2.892562 -20.952449 0.000001 -0.000000 -0.000003 4.479042 3.529217 5.542458 -3.947371 -2.288877 67.131395 0.000006 16.332920 -0.000003 -7.797052 -9.941481 10.678224 18.065014 0.363861 -10.973760 1.243703 -32.753298 3.078779 2.090005 -8.501779 1.113873 -0.000000 0.000001 0.000005 0.329983 -4.602201 7.850578 0.387027 -2.823577 20.566231 -0.193120 -0.216353 13.843933 -0.000000 -0.000000 -0.000001 0.900101 -8.740770 15.690778 0.920457 -3.993314 33.426242 0.212785 -1.675875 15.763424 0.000000 -0.000000 -0.000000 2.556920 -11.716314 26.683850 1.708993 -3.885167 40.192211 -0.158867 0.045622 17.714275 -0.000001 -0.000000 0.000000 5.587940 -16.128769 36.628395 1.371564 -4.069375 45.536987 -0.726690 -0.220779 21.886337 -0.000000 -0.000000 0.000000 -21.843826 10.415128 15.292184 32.231932 8.561115 1.881760 -8.761420 4.420912 -9.452073 -0.378748 -0.000000 -0.000001 -0.000000 0.000002 -0.000000 1.355480 -4.327210 9.520015 6.000584 -5.319745 3.239556 -6.397446 0.698352 -8.006844 -0.543043 -0.000004 0.000004 0.000000 0.000001 -0.000000 
2.472513 75.992004 1.694772 -1.121433 1.986506 -4.103538 1.415589 -0.989060 1.812901 0.744400 0.327594 5.945254 0.726911 0.844980 5.852002 1.136177 -0.334135 -2.250469 2.288737 0.351124 -8.379387 0.000000 0.000000 -0.000000 3.578092 -13.820690 -4.992860 3.755614 3.537249 -83.589112 0.000008 -14.213134 0.000002 -28.729032 2.575918 -10.026664 18.530969 -0.243984 10.983089 1.368496 32.972714 -3.089627 2.170246 9.531307 -0.321192 -0.000000 0.000002 0.000003 0.353229 4.764720 -8.776167 0.422446 2.915462 -21.542427 0.044097 0.880957 -10.808800 -0.000001 -0.000001 0.000004 0.967087 8.851137 -16.770041 0.972050 4.073190 -34.380020 0.186312 1.550803 -12.903772 0.000001 -0.000000 0.000000 2.658820 11.727871 -27.856351 1.781657 3.954414 -41.199124 0.571933 1.892465 -19.983947 -0.000000 -0.000000 -0.000000 5.635179 16.103400 -37.887893 1.443634 4.151458 -46.624729 0.513317 2.911968 -21.164986 0.000001 0.000000 0.000002 4.468556 3.587683 5.530279 -5.324316 -3.295124 66.917221 -0.000004 15.265912 -0.000004 -5.229734 -10.906640 11.108475 17.786868 0.301479 -11.011740 1.217406 -32.750484 3.072132 2.143053 -8.548300 1.113428 -0.000000 0.000002 -0.000002 0.323755 -4.557112 7.854694 0.387036 -2.823580 20.566222 -0.193122 -0.216346 13.843944 -0.000000 0.000000 -0.000003 0.892036 -8.722158 15.598878 0.921359 -3.994727 33.443062 0.210381 -1.667419 15.675624 0.000001 0.000000 -0.000001 2.557399 -11.744560 26.536851 1.707920 -3.884119 40.177010 -0.159459 0.052362 17.648389 0.000001 -0.000000 0.000000 5.594979 -16.193801 36.424542 1.366920 -4.063977 45.466121 -0.725944 -0.203321 21.732161 0.000000 0.000001 -0.000001 -21.818448 10.414834 15.235458 32.237574 8.469435 1.928896 -8.761245 4.414821 -9.424091 -0.362588 -0.000010 0.000001 -0.000000 0.000001 0.000000 1.423411 -4.357738 9.509585 6.033692 -5.307267 3.224164 -6.451511 0.597332 -7.982571 -0.537175 0.000002 -0.000000 -0.000000 -0.000000 -0.000000 
2.500434 75.993919 1.693762 -1.180697 2.115186 -4.094839 1.445389 -0.909093 1.824927 0.749101 0.353534 5.947677 0.731790 0.870948 5.854149 1.148191 -0.348587 -2.263968 2.449464 0.289792 -8.507566 -0.000000 -0.000000 -0.000000 3.577074 -13.841173 -4.961133 3.689558 3.635114 -83.575171 0.000011 -14.134289 0.000007 -29.291727 2.111762 -10.255373 18.547551 -0.152736 11.011149 1.404014 33.062968 -3.090038 2.192483 9.623695 -0.305555 -0.000000 0.000002 0.000001 0.359425 4.803840 -9.167249 0.437776 2.953831 -21.952023 0.048288 0.907824 -11.076919 0.000000 0.000000 -0.000002 0.990319 8.885086 -17.163842 0.994721 4.107351 -34.791116 0.193104 1.576705 -13.172045 -0.000001 -0.000002 0.000001 2.702181 11.750089 -28.253858 1.811790 3.982428 -41.611930 0.583483 1.916450 -20.252401 -0.000000 0.000002 0.000000 5.660367 16.134269 -38.285509 1.471252 4.182095 -47.035585 0.524722 2.936462 -21.433634 -0.000001 -0.000000 -0.000000 4.457746 3.644406 5.508064 -6.982644 -4.250834 66.610238 0.000002 13.850485 0.000012 -2.021186 -12.365906 11.587546 17.427984 0.222348 -11.061052 1.183496 -32.746884 3.063556 2.211462 -8.608291 1.112971 -0.000001 0.000005 0.000005 0.315711 -4.498960 7.860006 0.387023 -2.823584 20.566227 -0.193130 -0.216344 13.843929 -0.000000 -0.000000 0.000004 0.881684 -8.698119 15.480373 0.922521 -3.996548 33.464761 0.207318 -1.656531 15.562443 0.000000 -0.000000 0.000001 2.557755 -11.780994 26.347243 1.706507 -3.882754 40.157435 -0.160210 0.061061 17.563405 0.000001 0.000000 0.000000 5.603229 -16.277780 36.161388 1.360950 -4.057021 45.374760 -0.724891 -0.180816 21.533392 0.000000 0.000001 -0.000000 -21.793564 10.413932 15.176310 32.243831 8.373390 1.979362 -8.760332 4.411767 -9.395172 -0.349431 -0.000005 -0.000003 -0.000000 0.000002 -0.000000 1.492070 -4.383613 9.499873 6.066590 -5.306254 3.207555 -6.505152 0.499812 -7.955742 -0.530018 -0.000002 0.000000 -0.000000 -0.000000 -0.000000 
